<svg width="32" height="32" viewBox="0 0 32 32" fill="none" xmlns="http://www.w3.org/2000/svg">
<path d="M27.1286 5.84614C30.7219 11.1817 32.5186 17.1706 31.8652 24.085C31.8652 24.085 31.8652 24.1394 31.8108 24.1394C29.4152 25.9361 26.693 27.2972 23.8075 28.1683C23.753 28.2227 23.753 28.1683 23.6986 28.1683C23.0997 27.2972 22.5553 26.4261 22.0653 25.5005C22.0653 25.4461 22.0653 25.4461 22.0653 25.3916L22.1197 25.3372C22.9908 25.0105 23.8075 24.6294 24.6241 24.1394C24.6241 24.1394 24.6786 24.1394 24.6786 24.085C24.6786 24.0305 24.6786 24.0305 24.6241 23.9761C24.4608 23.8672 24.2975 23.7583 24.1341 23.595C24.0797 23.595 24.0797 23.595 24.0253 23.595C18.853 25.9905 13.1908 25.9905 7.96418 23.595C7.90973 23.595 7.85529 23.595 7.85529 23.595C7.69196 23.7583 7.52862 23.8672 7.36529 23.9761C7.31084 24.0305 7.31084 24.0305 7.31084 24.085C7.31084 24.1394 7.31084 24.1394 7.36529 24.1394C8.12751 24.6294 8.99862 25.0105 9.86973 25.3372C9.86973 25.3372 9.86973 25.3916 9.92417 25.3916C9.92417 25.4461 9.92417 25.4461 9.92417 25.5005C9.43417 26.4261 8.88973 27.2972 8.29084 28.1683C8.2364 28.1683 8.18195 28.2227 8.18195 28.1683C5.2964 27.2972 2.57419 25.9361 0.178637 24.1394C0.124192 24.1394 0.124192 24.085 0.124192 24.085C-0.420251 18.0961 0.72308 12.0528 4.86085 5.84614C4.86085 5.84614 4.86085 5.84614 4.91529 5.84614C6.98418 4.86614 9.16195 4.21281 11.3942 3.8317C11.4486 3.77726 11.5031 3.8317 11.5031 3.8317C11.8297 4.37614 12.1019 4.97503 12.3197 5.51947C14.7697 5.13836 17.2197 5.13836 19.6697 5.51947C19.8875 4.97503 20.1597 4.37614 20.4864 3.8317C20.4864 3.8317 20.5408 3.77726 20.5953 3.8317C22.8275 4.21281 25.0053 4.86614 27.0741 5.84614C27.1286 5.84614 27.1286 5.84614 27.1286 5.84614ZM10.6864 20.4372C12.2653 20.4372 13.5719 18.9672 13.5719 17.225C13.5719 15.4283 12.3197 14.0128 10.6864 14.0128C9.10751 14.0128 7.80084 15.4283 7.80084 17.225C7.80084 18.9672 9.10751 20.4372 10.6864 20.4372ZM21.303 20.4372C22.9364 20.4372 24.1886 18.9672 24.1886 17.225C24.243 15.4283 22.9364 14.0128 21.303 14.0128C19.7242 14.0128 18.4719 15.4283 18.4719 17.225C18.4719 18.9672 19.7242 20.4372 21.303 20.4372Z"/>
</svg>
