<svg width="33" height="33" viewBox="0 0 33 33" fill="none" xmlns="http://www.w3.org/2000/svg">
<path d="M16.1953 0.333984C24.9695 0.333984 32.1953 7.55979 32.1953 16.334C32.1953 25.1727 24.9695 32.334 16.1953 32.334C7.3566 32.334 0.195312 25.1727 0.195312 16.334C0.195312 7.55979 7.3566 0.333984 16.1953 0.333984ZM23.5501 11.2372C23.6147 11.0437 23.6147 10.8501 23.5501 10.592C23.5501 10.463 23.4211 10.2695 23.3566 10.205C23.1631 10.0114 22.8405 10.0114 22.7114 10.0114C22.1308 10.0114 21.1631 10.334 16.7114 12.205C15.1631 12.8501 12.0663 14.1404 7.42112 16.205C6.64693 16.5275 6.25983 16.7856 6.19531 17.1082C6.1308 17.6243 6.96951 17.8179 7.93725 18.1404C8.77596 18.3985 9.87273 18.7211 10.4534 18.7211C10.9695 18.7211 11.5502 18.5275 12.1953 18.0759C16.5179 15.1082 18.776 13.6243 18.905 13.6243C19.034 13.6243 19.1631 13.5598 19.2276 13.6243C19.3566 13.7533 19.3566 13.8824 19.2921 13.9469C19.2276 14.2695 15.1631 18.0114 14.905 18.2695C14.0018 19.1727 12.9695 19.7533 14.5824 20.7856C15.9372 21.6888 16.7114 22.2695 18.1308 23.1727C19.034 23.7533 19.7437 24.463 20.6469 24.3985C21.0985 24.334 21.5502 23.9469 21.7437 22.7211C22.3243 19.9469 23.3566 13.7533 23.5501 11.2372Z" fill="white"/>
</svg>
