<?xml version="1.0" standalone="no"?>
<!DOCTYPE svg PUBLIC "-//W3C//DTD SVG 20010904//EN"
 "http://www.w3.org/TR/2001/REC-SVG-20010904/DTD/svg10.dtd">
<svg version="1.0" xmlns="http://www.w3.org/2000/svg"
 width="500.000000pt" height="500.000000pt" viewBox="0 0 500.000000 500.000000"
 preserveAspectRatio="xMidYMid meet">
<metadata>
Created by potrace 1.14, written by Peter Selinger 2001-2017
</metadata>
<g transform="translate(0.000000,500.000000) scale(0.100000,-0.100000)"
fill="#000000" stroke="none">
<path d="M2309 4996 c-2 -2 -35 -7 -74 -10 -128 -11 -267 -38 -423 -82 -335
-95 -627 -249 -902 -473 -83 -68 -297 -286 -368 -375 -297 -372 -480 -821
-530 -1301 -9 -91 -9 -430 1 -520 8 -77 15 -121 34 -225 10 -57 55 -223 83
-311 77 -235 200 -470 356 -679 100 -135 103 -138 244 -280 177 -178 299 -275
495 -392 108 -64 297 -158 318 -158 8 0 17 -3 21 -7 11 -11 179 -70 276 -96
73 -20 242 -55 305 -62 28 -4 61 -9 75 -12 43 -9 441 -11 515 -3 147 17 173
21 270 41 315 64 600 183 877 365 53 36 103 70 110 77 7 7 20 18 29 23 59 33
331 295 405 389 21 27 47 59 57 69 19 22 153 222 184 276 68 118 127 243 187
400 25 67 85 282 93 335 2 17 8 46 13 65 22 87 35 251 35 440 0 269 -15 403
-70 620 -33 130 -93 312 -108 326 -4 4 -7 13 -7 20 0 15 -74 170 -125 263
-167 302 -454 620 -742 823 -280 199 -590 333 -933 406 -52 12 -122 24 -155
27 -33 4 -69 9 -80 12 -25 6 -460 14 -466 9z m406 -750 c121 -18 174 -29 251
-51 98 -29 254 -85 254 -92 0 -3 -6 -3 -13 0 -8 3 -20 1 -28 -3 -7 -5 -18 -5
-24 0 -11 9 -46 7 -64 -5 -5 -3 -12 -1 -16 5 -7 11 -33 9 -52 -3 -8 -5 -13 -3
-13 3 0 7 -7 9 -16 6 -9 -3 -39 -9 -67 -12 -29 -4 -56 -9 -62 -12 -5 -4 -14
-7 -20 -8 -5 -1 -23 -7 -40 -14 -16 -6 -32 -11 -34 -10 -2 1 -7 -2 -10 -7 -3
-4 -23 -17 -43 -28 -67 -35 -208 -181 -191 -198 3 -4 1 -7 -5 -7 -7 0 -12 -7
-12 -17 0 -14 -2 -14 -20 2 -11 10 -20 24 -20 31 0 25 -154 171 -210 200 -30
15 -57 29 -60 29 -7 2 -42 15 -65 25 -11 5 -27 8 -35 8 -20 0 -62 10 -68 17
-3 2 -11 0 -19 -6 -9 -9 -13 -8 -13 0 0 8 -5 9 -19 1 -11 -5 -22 -6 -25 -2 -3
5 -37 8 -76 6 -38 -1 -70 1 -70 6 0 5 30 20 68 33 163 61 258 83 452 107 63 8
325 5 385 -4z m-1487 -2850 c7 -4 12 -2 12 4 0 8 6 8 20 0 14 -8 20 -8 20 0 0
6 5 8 12 4 7 -5 42 -9 78 -10 197 -7 206 -9 252 -52 63 -59 102 -92 109 -92 4
0 9 -6 12 -12 3 -10 -45 -13 -227 -11 l-231 2 -77 82 c-43 45 -75 85 -73 88 5
9 79 6 93 -3z m2505 0 c10 10 87 11 87 2 0 -5 9 -4 19 2 44 23 26 -12 -47 -89
l-77 -83 -203 1 c-112 0 -207 3 -213 6 -5 4 -9 2 -9 -3 0 -5 -7 -9 -14 -9 -11
0 -13 5 -5 19 5 10 14 18 19 18 6 0 27 17 48 38 88 85 84 83 173 89 46 4 108
7 137 7 28 0 52 5 52 10 0 4 6 3 13 -3 8 -6 17 -8 20 -5z"/>
</g>
</svg>
